<?xml version="1.0" encoding="UTF-8"?>
<svg version="1.1" xmlns="http://www.w3.org/2000/svg" width="1024" height="1024">
<path d="M0 0 C337.92 0 675.84 0 1024 0 C1024 337.92 1024 675.84 1024 1024 C686.08 1024 348.16 1024 0 1024 C0 686.08 0 348.16 0 0 Z " fill="#232323" transform="translate(0,0)"/>
<path d="M0 0 C66.33 0 132.66 0 201 0 C201 20.87886313 201 20.87886313 198.5 28.125 C198.23227783 28.94991943 197.96455566 29.77483887 197.6887207 30.62475586 C193.29098258 43.64000532 187.40102583 54.87822886 178 65 C177.2059375 65.87398438 176.411875 66.74796875 175.59375 67.6484375 C160.40712303 83.65206656 137.93659161 92.85445894 116.005867 94.18112564 C112.90676444 94.24316093 109.81351512 94.24788875 106.71386719 94.22705078 C105.55143997 94.22734283 104.38901276 94.22763489 103.19136047 94.22793579 C99.39311963 94.22655526 95.59508108 94.21105459 91.796875 94.1953125 C89.14601307 94.19157782 86.49516198 94.18863447 83.84429932 94.18673706 C77.60791296 94.18055458 71.37159787 94.1641882 65.1352427 94.14403808 C57.32845679 94.11936866 49.52165899 94.10851556 41.71484375 94.09765625 C27.80984052 94.0782541 13.90499247 94.03817722 0 94 C0 117.43 0 140.86 0 165 C46.53 165 93.06 165 141 165 C141 189.90172598 134.83530435 212.27115426 118 231 C117.48308594 231.598125 116.96617187 232.19625 116.43359375 232.8125 C102.64313736 247.74352045 82.849037 256.11326587 63 259 C60.84648853 259.08318298 58.6907576 259.11785293 56.53564453 259.11352539 C55.27479034 259.11344986 54.01393616 259.11337433 52.71487427 259.11329651 C51.3541866 259.10819109 49.99349935 259.10297511 48.6328125 259.09765625 C47.22891287 259.09578912 45.82501258 259.09436661 44.42111206 259.09336853 C40.74192478 259.08956658 37.06277752 259.07975633 33.38360596 259.06866455 C29.62293031 259.05840031 25.86224814 259.0538602 22.1015625 259.04882812 C14.73435683 259.03813179 7.36718404 259.02108352 0 259 C0.00888245 259.57834595 0.01776489 260.15669189 0.0269165 260.75256348 C0.11644067 266.85365765 0.17616244 272.95456093 0.21972656 279.05615234 C0.23965772 281.32348223 0.26681268 283.59076197 0.30175781 285.85791016 C0.5522111 302.54251915 -0.1120975 317.52125877 -7.6875 332.75 C-8.19796875 333.8028418 -8.19796875 333.8028418 -8.71875 334.87695312 C-12.06598642 341.54099654 -16.20897682 347.27785924 -21 353 C-21.64710938 353.80953125 -22.29421875 354.6190625 -22.9609375 355.453125 C-37.71103179 373.15323815 -60.68678627 382.00676401 -83 385 C-86.63 385 -90.26 385 -94 385 C-94 258.28 -94 131.56 -94 1 C-90.49224989 2.75387506 -88.81452594 3.93741043 -86.14019775 6.61929321 C-85.38583939 7.37090225 -84.63148102 8.12251129 -83.85426331 8.89689636 C-83.03642868 9.72192154 -82.21859406 10.54694672 -81.37597656 11.39697266 C-80.50732468 12.26533249 -79.63867279 13.13369232 -78.74369812 14.02836609 C-76.36639527 16.40682287 -73.99361503 18.78962826 -71.62273502 21.1744771 C-69.14259535 23.66712595 -66.65678433 26.1541058 -64.17156982 28.64169312 C-59.46798362 33.35149353 -54.76951859 38.06636861 -50.07287288 42.78308904 C-44.20026882 48.68024775 -38.32085488 54.57060414 -32.44140625 60.4609375 C-21.95438085 70.96743789 -11.47770124 81.48418263 -1 92 C-0.67 61.64 -0.34 31.28 0 0 Z " fill="#FBFBFB" transform="translate(459,324)"/>
<path d="M0 0 C3.21501679 1.60750839 5.21166853 2.85863155 7.85980225 5.13479614 C8.61418862 5.7822004 9.368575 6.42960466 10.14582157 7.09662724 C10.96362819 7.80869044 11.7814348 8.52075365 12.62402344 9.25439453 C13.49242324 10.00848067 14.36082304 10.76256681 15.25553799 11.53950405 C26.64480597 21.49336384 37.76161787 31.73238026 48.75 42.125 C49.27640878 42.62164453 49.80281756 43.11828906 50.34517813 43.62998343 C96.89295635 87.59914277 96.89295635 87.59914277 99.33073425 117.59474182 C99.71266475 133.10001431 95.80063397 147.67518269 93 163 C62.97 163.33 32.94 163.66 2 164 C3.99845929 167.99691858 5.56382425 169.63096938 8.875 172.5 C15.58323096 178.34717445 15.58323096 178.34717445 18 181 C18 181.66 18 182.32 18 183 C18.5969165 183.27094482 19.19383301 183.54188965 19.80883789 183.82104492 C21.97094914 184.98436918 23.35093986 186.11926454 25.05859375 187.86328125 C25.60966797 188.42080078 26.16074219 188.97832031 26.72851562 189.55273438 C27.57446289 190.42381836 27.57446289 190.42381836 28.4375 191.3125 C28.99759766 191.88162109 29.55769531 192.45074219 30.13476562 193.03710938 C31.23949151 194.15988213 32.34200011 195.2848414 33.44213867 196.41210938 C34.86992181 197.86741442 36.3168711 199.30385119 37.765625 200.73828125 C40 203 40 203 42.3125 205.875 C44.19249612 208.17020999 46.17403411 210.08327782 48.4375 212 C54.43730628 217.10670534 59.88321976 222.80012619 65.41552734 228.40136719 C66.84783535 229.84647548 68.29235768 231.27945254 69.73828125 232.7109375 C72.09411205 235.09524985 74.23636415 237.5801659 76.375 240.15625 C79.29896313 243.47382355 82.2551081 246.46787988 85.86157227 249.04418945 C91.10429311 253.13454725 94.1001695 256.45588873 94.95263672 263.22412109 C95.29843183 268.45076924 95.22897229 273.65346823 95.04956055 278.88598633 C94.93831989 282.16334438 94.90615694 285.43382438 94.88867188 288.71289062 C94.69619408 303.83835931 93.14502823 318.01465005 86.3125 331.75 C85.80203125 332.8028418 85.80203125 332.8028418 85.28125 333.87695312 C81.93401358 340.54099654 77.79102318 346.27785924 73 352 C72.35289062 352.80953125 71.70578125 353.6190625 71.0390625 354.453125 C56.28896821 372.15323815 33.31321373 381.00676401 11 384 C7.37 384 3.74 384 0 384 C0 257.28 0 130.56 0 0 Z " fill="#FDFDFD" transform="translate(365,325)"/>
<path d="M0 0 C46.53 0 93.06 0 141 0 C141 24.90172598 134.83530435 47.27115426 118 66 C117.48308594 66.598125 116.96617187 67.19625 116.43359375 67.8125 C102.64313736 82.74352045 82.849037 91.11326587 63 94 C60.84648853 94.08318298 58.6907576 94.11785293 56.53564453 94.11352539 C54.61812378 94.11334412 54.61812378 94.11334412 52.66186523 94.11315918 C51.31884715 94.10812517 49.97582955 94.10295868 48.6328125 94.09765625 C47.40038818 94.09664917 46.16796387 94.09564209 44.89819336 94.09460449 C40.3071194 94.08938384 35.71605874 94.07542257 31.125 94.0625 C20.85375 94.041875 10.5825 94.02125 0 94 C0 62.98 0 31.96 0 0 Z " fill="#FCFCFC" transform="translate(459,489)"/>
<path d="M0 0 C30.69 0 61.38 0 93 0 C93 31.02 93 62.04 93 94 C85.2137931 87.32610837 85.2137931 87.32610837 82.4375 83.9375 C79.52607139 80.5115236 76.49896599 77.81438569 73 75 C69.48142526 71.58045799 66.16253226 68.01581931 62.875 64.375 C57.43385305 58.38936478 51.75956393 52.67882238 46 47 C45.13890625 46.12859375 44.2778125 45.2571875 43.390625 44.359375 C41.52149017 42.51467331 39.66331927 40.83306994 37.625 39.1875 C34.33936338 36.41280471 31.60661458 33.35212793 28.82421875 30.08203125 C25.72642053 26.54642858 22.35423772 23.29000764 19 20 C14 15 14 15 12.12890625 13.09375 C9.02413055 9.94789031 5.95570724 6.88629798 2.5 4.125 C1.675 3.42375 0.85 2.7225 0 2 C0 1.34 0 0.68 0 0 Z " fill="#232323" transform="translate(366,489)"/>
<path d="M0 0 C4 2 4 2 5 4 C4.01 4 3.02 4 2 4 C1.9533191 25.07035406 1.91803036 46.14069961 1.89637566 67.21109486 C1.88605462 76.99401895 1.87197851 86.77691095 1.84912109 96.55981445 C1.82921251 105.08467511 1.81628959 113.60951252 1.81182301 122.13439578 C1.80921133 126.64998322 1.80305563 131.16550416 1.78853989 135.68107033 C1.77499594 139.92861943 1.77077088 144.17607446 1.77378464 148.42364311 C1.77323304 149.98495621 1.76923664 151.54627236 1.76158905 153.10756683 C1.75167754 155.2348579 1.75401703 157.36179108 1.75949097 159.48908997 C1.75764738 160.68096829 1.75580379 161.87284662 1.75390434 163.10084248 C1.78183578 166.19528519 1.78183578 166.19528519 4 169 C3.01 169.33 2.02 169.66 1 170 C1 239.63 1 309.26 1 381 C0.67 381 0.34 381 0 381 C0 255.27 0 129.54 0 0 Z " fill="#E6E6E5" transform="translate(365,325)"/>
<path d="M0 0 C4 2 4 2 5 4 C4.01 4 3.02 4 2 4 C1.67 57.46 1.34 110.92 1 166 C0.67 166 0.34 166 0 166 C0 111.22 0 56.44 0 0 Z " fill="#E4E4E4" transform="translate(365,325)"/>
<path d="M0 0 C1.98 0.99 1.98 0.99 4 2 C3.67 2.66 3.34 3.32 3 4 C2.34 4 1.68 4 1 4 C1 30.73 1 57.46 1 85 C0.67 85 0.34 85 0 85 C0 56.95 0 28.9 0 0 Z " fill="#EAEAEA" transform="translate(365,491)"/>
<path d="M0 0 C2.31 0.33 4.62 0.66 7 1 C7 1.66 7 2.32 7 3 C7.99 3.33 8.98 3.66 10 4 C9.67 4.66 9.34 5.32 9 6 C10.65 7.98 12.3 9.96 14 12 C11 12 11 12 8.30078125 9.62890625 C7.29691517 8.61440318 6.30108274 7.59190164 5.3125 6.5625 C4.80138672 6.04623047 4.29027344 5.52996094 3.76367188 4.99804688 C0 1.15397613 0 1.15397613 0 0 Z " fill="#1D1D1D" transform="translate(390,348)"/>
<path d="M0 0 C0.66 0 1.32 0 2 0 C2.43702768 4.45768233 2.51445113 6.34650802 -0.3125 9.9375 C-3 12 -3 12 -6 12 C-4.02 8.04 -2.04 4.08 0 0 Z " fill="#303030" transform="translate(452,653)"/>
<path d="M0 0 C4 2 4 2 5 4 C4.01 4 3.02 4 2 4 C1.67 11.59 1.34 19.18 1 27 C0.67 27 0.34 27 0 27 C0 18.09 0 9.18 0 0 Z " fill="#DCDCDC" transform="translate(365,325)"/>
<path d="M0 0 C0.45375 0.639375 0.9075 1.27875 1.375 1.9375 C2.83921726 4.09702406 2.83921726 4.09702406 5 5 C4.67 6.65 4.34 8.3 4 10 C0.83884224 8.63016497 0.0072908 8.0109362 -2 5 C-1.125 2.3125 -1.125 2.3125 0 0 Z " fill="#1C1C1C" transform="translate(382,333)"/>
<path d="M0 0 C1.32 0.66 2.64 1.32 4 2 C3.34 2.66 2.68 3.32 2 4 C3.2065625 5.175625 3.2065625 5.175625 4.4375 6.375 C7 9 7 9 8 11 C4.90915263 10.65657251 3.67555431 9.74044345 1.1875 7.75 C-1 5 -1 5 -0.8125 2.1875 C-0.544375 1.465625 -0.27625 0.74375 0 0 Z " fill="#1D1D1D" transform="translate(423,376)"/>
<path d="M0 0 C0 3.39593478 -0.52165948 4.06619881 -2.5 6.6875 C-2.9640625 7.31011719 -3.428125 7.93273437 -3.90625 8.57421875 C-4.2671875 9.04472656 -4.628125 9.51523437 -5 10 C-5.66 9.67 -6.32 9.34 -7 9 C-6.82374165 6.62051228 -6.30280227 5.29774151 -4.59765625 3.62109375 C-3.09350908 2.37884514 -1.54870149 1.18623944 0 0 Z " fill="#2E2E2E" transform="translate(574,557)"/>
<path d="M0 0 C1.98 0.99 1.98 0.99 4 2 C3.67 2.66 3.34 3.32 3 4 C2.34 4 1.68 4 1 4 C1 6.97 1 9.94 1 13 C0.67 13 0.34 13 0 13 C0 8.71 0 4.42 0 0 Z " fill="#F2F2F0" transform="translate(365,491)"/>
<path d="M0 0 C0.66 0 1.32 0 2 0 C3.625 2.5 3.625 2.5 5 5 C4.01 6.485 4.01 6.485 3 8 C0.37613513 4.93882432 0 4.26826873 0 0 Z " fill="#292929" transform="translate(430,550)"/>
<path d="M0 0 C0.33 1.32 0.66 2.64 1 4 C-0.8125 5.5625 -0.8125 5.5625 -3 7 C-3.99 6.67 -4.98 6.34 -6 6 C-4 4 -2 2 0 0 Z " fill="#2B2B2B" transform="translate(630,395)"/>
<path d="M0 0 C0.66 0.33 1.32 0.66 2 1 C2.625 4.0625 2.625 4.0625 3 7 C1.02 5.35 -0.96 3.7 -3 2 C-2.01 1.34 -1.02 0.68 0 0 Z " fill="#3B3B3B" transform="translate(450,570)"/>
<path d="M0 0 C0.33 1.32 0.66 2.64 1 4 C1.66 4 2.32 4 3 4 C2.67 4.66 2.34 5.32 2 6 C1.34 5.67 0.68 5.34 0 5 C0 5.66 0 6.32 0 7 C-0.99 6.67 -1.98 6.34 -3 6 C-2.01 4.02 -1.02 2.04 0 0 Z " fill="#323232" transform="translate(650,369)"/>
</svg>
